# xmcd
#
# Track frame offsets: 
#        182
#        18112
#        36967
#        50750
#        66125
#        82550
#        98487
#        116757
#        133735
#        147117
#
# Disc length: 2181 seconds
#
# Revision: 5
# Processed by: cddbd v1.5.2PL0 Copyright (c) Steve Scherf et al.
# Submitted via: ExactAudioCopy v1.0b3
#
DISCID=7b08830a
DTITLE=k.d. lang - All You Can Eat
DYEAR=1900
DGENRE=Pop
TTITLE0=If I Were You
TTITLE1=Maybe
TTITLE2=You're Ok
TTITLE3=Sexuality
TTITLE4=Get Some
TTITLE5=Acquiesce
TTITLE6=This
TTITLE7=World Of Love
TTITLE8=Infinite And Unforeseen
TTITLE9=I Want It All
EXTD=
EXTT0=
EXTT1=
EXTT2=
EXTT3=
EXTT4=
EXTT5=
EXTT6=
EXTT7=
EXTT8=
EXTT9=
PLAYORDER=
